#!OML:ASF G:\JayActor3\Patient Classification 1\Patient 1\Session 5\male.ASF
:FULLY-SPECIFIED
:DEGREES
1034
root 56.3975 16.9225 -6.49566 -114.862 -92.451 114.706
lowerback 3.36851 -0.727489 5.22409
upperback -0.0626308 -0.776761 -0.559062
thorax -2.03282 -0.444887 -3.46884
lowerneck -4.32267 0.278468 1.24658
upperneck 10.5001 0.0266889 1.34162
head 4.21305 0.0830207 0.226207
rclavicle 2.01891e-016 6.55989e-015
rhumerus -35.0899 -6.64687 -87.4413
rradius 27.4363
rwrist 2.61433
rhand -18.8488 -11.2673
rfingers 7.12502
rthumb 7.45109 -41.116
lclavicle 2.01891e-016 6.55989e-015
lhumerus -35.4144 13.5311 78.8105
lradius 16.7198
lwrist 9.8025
lhand -18.2732 12.9093
lfingers 7.12502
lthumb 8.00662 42.7377
rfemur 0.61562 7.27351 28.9613
rtibia 29.3454
rfoot 0.422555 -4.60184
rtoes -13.6742
lfemur -22.6973 6.55417 -19.7709
ltibia 25.4106
lfoot 8.17087 -9.60835
ltoes -15.39
1035
root 56.5089 16.9288 -6.50299 -118.605 -92.5367 118.246
lowerback 3.44993 -0.762734 5.21708
upperback 0.00542064 -0.821025 -0.534979
thorax -2.01215 -0.465029 -3.43716
lowerneck -4.31203 0.257959 1.22721
upperneck 10.6413 -0.00357706 1.33024
head 4.26183 0.0665215 0.224675
rclavicle 6.65307e-015 6.55989e-015
rhumerus -35.2464 -6.69098 -87.3669
rradius 27.3793
rwrist 2.64931
rhand -18.8164 -11.284
rfingers 7.12502
rthumb 7.48238 -41.1317
lclavicle 6.65307e-015 6.55989e-015
lhumerus -35.4631 13.6591 78.7867
lradius 16.5699
lwrist 9.54574
lhand -18.1783 12.9089
lfingers 7.12502
lthumb 8.09825 42.7338
rfemur 0.300554 7.11314 28.9274
rtibia 29.5747
rfoot 0.38876 -4.6059
rtoes -13.2603
lfemur -22.4449 6.4301 -19.6487
ltibia 26.6494
lfoot 6.6519 -9.41878
ltoes -15.9154
1036
root 56.6172 16.9361 -6.50963 -121.401 -92.5974 120.841
lowerback 3.52214 -0.783412 5.1937
upperback 0.056712 -0.846656 -0.514603
thorax -2.00155 -0.476324 -3.40106
lowerneck -4.28977 0.241858 1.21292
upperneck 10.7901 -0.029297 1.32441
head 4.31113 0.0525325 0.224301
rclavicle 4.34841e-017 6.55989e-015
rhumerus -35.4329 -6.75076 -87.2753
rradius 27.2981
rwrist 2.72773
rhand -18.7856 -11.3103
rfingers 7.12502
rthumb 7.51211 -41.1569
lclavicle 4.34841e-017 6.55989e-015
lhumerus -35.5546 13.768 78.7601
lradius 16.4591
lwrist 9.34097
lhand -18.101 12.9338
lfingers 7.12502
lthumb 8.17283 42.7558
rfemur 0.0115639 6.96774 28.8811
rtibia 29.7729
rfoot 0.371196 -4.64174
rtoes -12.8549
lfemur -22.1671 6.32264 -19.5297
ltibia 28.053
lfoot 5.16029 -8.89318
ltoes -16.5848
1037
root 56.7225 16.9445 -6.51542 -123.283 -92.6339 122.536
lowerback 3.56559 -0.790256 5.16297
upperback 0.0970574 -0.8555 -0.495398
thorax -1.98435 -0.479217 -3.36318
lowerneck -4.26609 0.225276 1.20163
upperneck 10.9462 -0.0566241 1.32114
head 4.36294 0.0378995 0.224169
rclavicle 3.77691e-015 -1.90833e-014
rhumerus -35.6356 -6.81162 -87.1728
rradius 27.1991
rwrist 2.82861
rhand -18.7626 -11.3437
rfingers 7.12502
rthumb 7.53435 -41.1895
lclavicle 3.77691e-015 -1.90833e-014
lhumerus -35.6667 13.8797 78.7248
lradius 16.365
lwrist 9.16815
lhand -18.0483 12.9499
lfingers 7.12502
lthumb 8.22368 42.7699
rfemur -0.268814 6.83251 28.8267
rtibia 29.9502
rfoot 0.366547 -4.69472
rtoes -12.4699
lfemur -21.8669 6.23366 -19.4037
ltibia 29.5957
lfoot 3.76465 -8.00644
ltoes -17.2152
1038
root 56.8252 16.9529 -6.52034 -124.445 -92.6494 123.536
lowerback 3.5693 -0.786989 5.13371
upperback 0.126156 -0.852776 -0.480041
thorax -1.95542 -0.476268 -3.33112
lowerneck -4.23851 0.21133 1.19816
upperneck 11.1001 -0.0812815 1.31944
head 4.41331 0.0248826 0.22328
rclavicle 1.15109e-014 2.38542e-015
rhumerus -35.8474 -6.87794 -87.0648
rradius 27.0807
rwrist 2.94702
rhand -18.7541 -11.367
rfingers 7.12502
rthumb 7.5425 -41.2125
lclavicle 1.15109e-014 2.38542e-015
lhumerus -35.8033 13.947 78.7029
lradius 16.3197
lwrist 9.08158
lhand -18.0116 12.9773
lfingers 7.12502
lthumb 8.25914 42.7959
rfemur -0.558785 6.70229 28.7647
rtibia 30.1208
rfoot 0.373053 -4.7522
rtoes -12.1263
lfemur -21.5438 6.1604 -19.2657
ltibia 31.2424
lfoot 2.55551 -6.79231
ltoes -17.4868
1039
root 56.9254 16.9605 -6.52455 -124.909 -92.6429 123.863
lowerback 3.52531 -0.774013 5.10926
upperback 0.148252 -0.839453 -0.470578
thorax -1.9061 -0.467691 -3.3089
lowerneck -4.20679 0.199181 1.20099
upperneck 11.244 -0.104569 1.3246
head 4.45934 0.013054 0.223599
rclavicle -3.31567e-015 -1.98785e-015
rhumerus -36.0553 -6.95967 -86.9535
rradius 26.9422
rwrist 3.06667
rhand -18.7599 -11.3785
rfingers 7.12502
rthumb 7.53695 -41.2243
lclavicle -3.31567e-015 -1.98785e-015
lhumerus -35.9495 13.9816 78.6858
lradius 16.3049
lwrist 9.06127
lhand -17.9896 13.0185
lfingers 7.12502
lthumb 8.28039 42.8362
rfemur -0.871512 6.58299 28.6959
rtibia 30.3021
rfoot 0.387994 -4.80368
rtoes -11.8218
lfemur -21.2063 6.1627 -19.1349
ltibia 32.9523
lfoot 1.53854 -5.39494
ltoes -17.7597
1040
root 57.0235 16.9668 -6.52834 -124.775 -92.6153 123.618
lowerback 3.43797 -0.752859 5.08783
upperback 0.165659 -0.817445 -0.468096
thorax -1.83666 -0.45439 -3.29648
lowerneck -4.18211 0.188986 1.21286
upperneck 11.3796 -0.126359 1.33433
head 4.50389 0.00261696 0.223917
rclavicle 4.31735e-015 -7.7526e-015
rhumerus -36.2522 -7.06307 -86.8383
rradius 26.7727
rwrist 3.21984
rhand -18.7946 -11.3327
rfingers 7.12502
rthumb 7.50345 -41.1796
lclavicle 4.31735e-015 -7.7526e-015
lhumerus -36.099 13.9694 78.679
lradius 16.323
lwrist 9.1136
lhand -17.9645 13.0478
lfingers 7.12502
lthumb 8.30464 42.8645
rfemur -1.21651 6.47908 28.6195
rtibia 30.5064
rfoot 0.411018 -4.83703
rtoes -11.5573
lfemur -20.846 6.24333 -19.0111
ltibia 34.6854
lfoot 0.751896 -3.9235
ltoes -18.112
1041
root 57.12 16.9715 -6.53246 -124.157 -92.5789 122.912
lowerback 3.30675 -0.727338 5.0645
upperback 0.185627 -0.79215 -0.466463
thorax -1.73964 -0.438682 -3.28442
lowerneck -4.17622 0.184127 1.22598
upperneck 11.5013 -0.141822 1.35411
head 4.54728 -0.0039465 0.227729
rclavicle -2.93518e-016 -7.95139e-016
rhumerus -36.4194 -7.18166 -86.7258
rradius 26.5915
rwrist 3.36608
rhand -18.8421 -11.3357
rfingers 7.12502
rthumb 7.4576 -41.1842
lclavicle -2.93518e-016 -7.95139e-016
lhumerus -36.2374 13.9253 78.6835
lradius 16.3702
lwrist 9.2203
lhand -17.9267 13.061
lfingers 7.12502
lthumb 8.34103 42.8763
rfemur -1.59741 6.3959 28.5484
rtibia 30.7363
rfoot 0.440226 -4.85916
rtoes -11.318
lfemur -20.4653 6.40048 -18.8867
ltibia 36.4099
lfoot 0.223344 -2.47391
ltoes -18.6433
1042
root 57.2152 16.9751 -6.53711 -123.278 -92.541 121.966
lowerback 3.15383 -0.704652 5.03633
upperback 0.196772 -0.771646 -0.464693
thorax -1.63998 -0.425423 -3.26934
lowerneck -4.18042 0.186813 1.2386
upperneck 11.6199 -0.148085 1.38227
head 4.59168 -0.00548443 0.234961
rclavicle 2.03599e-015 -5.96354e-016
rhumerus -36.5688 -7.32547 -86.6042
rradius 26.39
rwrist 3.49832
rhand -18.8517 -11.3502
rfingers 7.12502
rthumb 7.44826 -41.1991
lclavicle 2.03599e-015 -5.96354e-016
lhumerus -36.3862 13.8529 78.69
lradius 16.4476
lwrist 9.36546
lhand -17.8619 13.0757
lfingers 7.12502
lthumb 8.4036 42.8885
rfemur -2.00767 6.33427 28.4845
rtibia 30.9833
rfoot 0.476225 -4.868
rtoes -11.1445
lfemur -20.0629 6.60881 -18.7585
ltibia 38.1057
lfoot -0.0297527 -1.11354
ltoes -19.4027
1043
root 57.3096 16.9778 -6.54257 -122.359 -92.5073 120.992
lowerback 2.99548 -0.685666 4.99488
upperback 0.197838 -0.756356 -0.459276
thorax -1.54795 -0.415055 -3.24268
lowerneck -4.18866 0.194651 1.25575
upperneck 11.7308 -0.147444 1.40927
head 4.63416 -0.00340706 0.241374
rclavicle 5.6475e-015 -4.57205e-015
rhumerus -36.7125 -7.49152 -86.4682
rradius 26.186
rwrist 3.61138
rhand -18.814 -11.3994
rfingers 7.12502
rthumb 7.4847 -41.247
lclavicle 5.6475e-015 -4.57205e-015
lhumerus -36.5443 13.7562 78.6993
lradius 16.5436
lwrist 9.5308
lhand -17.7812 13.0735
lfingers 7.12502
lthumb 8.48149 42.8831
rfemur -2.4312 6.29222 28.43
rtibia 31.2335
rfoot 0.509835 -4.87431
rtoes -10.9585
lfemur -19.626 6.82963 -18.6168
ltibia 39.7584
lfoot -0.0120941 0.11351
ltoes -20.18
1044
root 57.4038 16.98 -6.5489 -121.582 -92.4857 120.17
lowerback 2.8518 -0.674977 4.94101
upperback 0.181279 -0.750996 -0.448181
thorax -1.48304 -0.410575 -3.20244
lowerneck -4.19275 0.204325 1.27642
upperneck 11.8372 -0.144007 1.43188
head 4.67422 -3.74802e-005 0.24582
rclavicle -4.71725e-015 1.49089e-014
rhumerus -36.8619 -7.67673 -86.314
rradius 25.9867
rwrist 3.7024
rhand -18.7186 -11.4862
rfingers 7.12502
rthumb 7.57679 -41.3305
lclavicle -4.71725e-015 1.49089e-014
lhumerus -36.7154 13.6449 78.7042
lradius 16.6454
lwrist 9.69964
lhand -17.6811 13.0513
lfingers 7.12502
lthumb 8.57812 42.857
rfemur -2.85918 6.26543 28.3881
rtibia 31.4731
rfoot 0.544569 -4.87864
rtoes -10.8017
lfemur -19.1501 7.02181 -18.4513
ltibia 41.3576
lfoot 0.234866 1.18055
ltoes -20.7679
1045
root 57.4975 16.9821 -6.55567 -120.88 -92.4704 119.426
lowerback 2.72817 -0.669275 4.87894
upperback 0.149146 -0.750838 -0.434754
thorax -1.44577 -0.40962 -3.15468
lowerneck -4.18372 0.212762 1.30392
upperneck 11.9331 -0.141475 1.44668
head 4.70781 0.00269321 0.24631
rclavicle -6.45351e-015 2.5842e-015
rhumerus -37.02 -7.88415 -86.141
rradius 25.7891
rwrist 3.78152
rhand -18.5906 -11.5802
rfingers 7.12502
rthumb 7.70028 -41.42
lclavicle -6.45351e-015 2.5842e-015
lhumerus -36.8972 13.5301 78.6957
lradius 16.7418
lwrist 9.84851
lhand -17.5974 13.0463
lfingers 7.12502
lthumb 8.65884 42.8487
rfemur -3.27634 6.25156 28.3525
rtibia 31.6926
rfoot 0.574086 -4.86888
rtoes -10.6274
lfemur -18.6199 7.16732 -18.2607
ltibia 42.8884
lfoot 0.646598 2.06673
ltoes -21.0121
